{"title":"Thunderbirds Are Go S01E26 Legacy 1080P WEB-DL AAC2 0 H 264","uid":13693015,"size":889194742,"categoryP":"video","categoryS":"hd___tv_shows","magnet":"?xt=urn:btih:36f982dfb225412231892217a63aee151260bc0e&amp;dn=Thunderbirds+Are+Go+S01E26+Legacy+1080P+WEB-DL+AAC2+0+H+264&amp;tr=udp%3A%2F%2Ftracker.leechers-paradise.org%3A6969&amp;tr=udp%3A%2F%2Fzer0day.ch%3A1337&amp;tr=udp%3A%2F%2Fopen.demonii.com%3A1337&amp;tr=udp%3A%2F%2Ftracker.coppersurfer.tk%3A6969&amp;tr=udp%3A%2F%2Fexodus.desync.com%3A6969","seeders":0,"leechers":0,"uploader":"jmanwf","files":1,"time":1456635276,"description":"A number of carefully staged disasters require the full attention of everyone at International Rescue. Kayo discovers that the Hood is behind these acts of terrorism and has actually infiltrated Tracy Island. To make matters worse, the Hood has rigged up explosive devices to bring down the Thunderbird craft - and now he reveals his shocking secret to the Tracy brothers.\r\n\r\n\r\nVideo\r\nID : 2\r\nFormat : AVC\r\nFormat/Info : Advanced Video Codec\r\nFormat profile :   \r\nFormat settings, CABAC : Yes\r\nFormat settings, ReFrames : 4 frames\r\nCodec ID : avc1\r\nCodec ID/Info : Advanced Video Coding\r\nDuration : 22mn 9s\r\nBit rate : 5 220 Kbps\r\nWidth : 1 920 pixels\r\nHeight : 1 080 pixels\r\nDisplay aspect ratio : 16:9\r\nFrame rate mode : Constant\r\nFrame rate : 25.000 fps\r\nColor space : YUV\r\nChroma subsampling : 4:2:0\r\nBit depth : 8 bits\r\nScan type : Progressive\r\nBits/(Pixel*Frame) : 0.101\r\nStream size : 827 MiB (98%)\r\nLanguage : English\r\nEncoded date : UTC 2016-02-27 12:44:49\r\nTagged date : UTC 2016-02-27 12:46:45\r\nColor range : Limited\r\nColor primaries : BT.709\r\nTransfer characteristics : BT.709\r\nMatrix coefficients : BT.709\r\n\r\nAudio\r\nID : 1\r\nFormat : AAC\r\nFormat/Info : Advanced Audio Codec\r\nFormat profile : LC\r\nCodec ID : 40\r\nDuration : 22mn 9s\r\nBit rate mode : Variable\r\nBit rate : 126 Kbps\r\nMaximum bit rate : 219 Kbps\r\nChannel(s) : 2 channels\r\nChannel positions : Front: L R\r\nSampling rate : 48.0 KHz\r\nCompression mode : Lossy\r\nStream size : 20.0 MiB (2%)\r\nLanguage : English\r\nEncoded date : UTC 2016-02-27 12:44:49\r\nTagged date : UTC 2016-02-27 12:46:45","torrent":{"xt":"urn:btih:36f982dfb225412231892217a63aee151260bc0e","amp;dn":"Thunderbirds+Are+Go+S01E26+Legacy+1080P+WEB-DL+AAC2+0+H+264","amp;tr":["udp%3A%2F%2Ftracker.leechers-paradise.org%3A6969","udp%3A%2F%2Fzer0day.ch%3A1337","udp%3A%2F%2Fopen.demonii.com%3A1337","udp%3A%2F%2Ftracker.coppersurfer.tk%3A6969","udp%3A%2F%2Fexodus.desync.com%3A6969"],"infoHash":"36f982dfb225412231892217a63aee151260bc0e","infoHashBuffer":{"type":"Buffer","data":[54,249,130,223,178,37,65,34,49,137,34,23,166,58,238,21,18,96,188,14]},"announce":[],"urlList":[]}}